<svg
    width="18"
    height="18"
    viewBox="0 0 14 14"
    fill="none"
    xmlns="http://www.w3.org/2000/svg"
>
    <path
        d="M6.99999 9.91669C7.16527 9.91669 7.30391 9.86069 7.41591 9.74869C7.52752 9.63708 7.58332 9.49863 7.58332 9.33335V7.58335H9.34791C9.51318 7.58335 9.64929 7.52735 9.75624 7.41535C9.86318 7.30374 9.91666 7.1653 9.91666 7.00002C9.91666 6.83474 9.86066 6.6961 9.74866 6.5841C9.63704 6.47249 9.4986 6.41669 9.33332 6.41669H7.58332V4.6521C7.58332 4.48683 7.52752 4.35071 7.41591 4.24377C7.30391 4.13683 7.16527 4.08335 6.99999 4.08335C6.83471 4.08335 6.69627 4.13916 6.58466 4.25077C6.47266 4.36277 6.41666 4.50141 6.41666 4.66669V6.41669H4.65207C4.4868 6.41669 4.35068 6.47249 4.24374 6.5841C4.1368 6.6961 4.08332 6.83474 4.08332 7.00002C4.08332 7.1653 4.13913 7.30374 4.25074 7.41535C4.36274 7.52735 4.50138 7.58335 4.66666 7.58335H6.41666V9.34794C6.41666 9.51321 6.47266 9.64933 6.58466 9.75627C6.69627 9.86321 6.83471 9.91669 6.99999 9.91669ZM6.99999 12.8334C6.19305 12.8334 5.43471 12.6801 4.72499 12.3737C4.01527 12.0676 3.39791 11.6521 2.87291 11.1271C2.34791 10.6021 1.93238 9.98474 1.62632 9.27502C1.31988 8.5653 1.16666 7.80696 1.16666 7.00002C1.16666 6.19308 1.31988 5.43474 1.62632 4.72502C1.93238 4.0153 2.34791 3.39794 2.87291 2.87294C3.39791 2.34794 4.01527 1.93221 4.72499 1.62577C5.43471 1.31971 6.19305 1.16669 6.99999 1.16669C7.80693 1.16669 8.56527 1.31971 9.27499 1.62577C9.98471 1.93221 10.6021 2.34794 11.1271 2.87294C11.6521 3.39794 12.0676 4.0153 12.3737 4.72502C12.6801 5.43474 12.8333 6.19308 12.8333 7.00002C12.8333 7.80696 12.6801 8.5653 12.3737 9.27502C12.0676 9.98474 11.6521 10.6021 11.1271 11.1271C10.6021 11.6521 9.98471 12.0676 9.27499 12.3737C8.56527 12.6801 7.80693 12.8334 6.99999 12.8334ZM6.99999 11.6667C8.29305 11.6667 9.39418 11.2123 10.3034 10.3034C11.2122 9.39421 11.6667 8.29308 11.6667 7.00002C11.6667 5.70696 11.2122 4.60583 10.3034 3.6966C9.39418 2.78777 8.29305 2.33335 6.99999 2.33335C5.70693 2.33335 4.60599 2.78777 3.69716 3.6966C2.78793 4.60583 2.33332 5.70696 2.33332 7.00002C2.33332 8.29308 2.78793 9.39421 3.69716 10.3034C4.60599 11.2123 5.70693 11.6667 6.99999 11.6667Z"
        fill="#D99BFF"
    />
</svg>