<svg width="374" height="150" viewBox="0 0 374 150" fill="none" xmlns="http://www.w3.org/2000/svg">
    <path
        d="M146.872 88.36C145.072 88.36 143.512 88.06 142.192 87.46C140.896 86.836 139.876 85.972 139.132 84.868C138.412 83.74 138.052 82.42 138.052 80.908H142.552C142.552 81.988 142.948 82.852 143.74 83.5C144.532 84.124 145.588 84.436 146.908 84.436C148.204 84.436 149.212 84.124 149.932 83.5C150.676 82.876 151.048 82.024 151.048 80.944C151.048 80.056 150.796 79.3 150.292 78.676C149.788 78.028 149.092 77.584 148.204 77.344L145.036 76.48C142.996 75.928 141.412 74.98 140.284 73.636C139.156 72.268 138.592 70.624 138.592 68.704C138.592 66.472 139.336 64.696 140.824 63.376C142.312 62.032 144.316 61.36 146.836 61.36C149.38 61.36 151.396 62.02 152.884 63.34C154.396 64.636 155.152 66.388 155.152 68.596H150.652C150.652 67.588 150.304 66.784 149.608 66.184C148.936 65.584 148 65.284 146.8 65.284C145.624 65.284 144.7 65.584 144.028 66.184C143.38 66.76 143.056 67.576 143.056 68.632C143.056 69.448 143.296 70.156 143.776 70.756C144.28 71.356 145 71.776 145.936 72.016L149.14 72.916C151.18 73.468 152.752 74.428 153.856 75.796C154.984 77.14 155.548 78.808 155.548 80.8C155.548 82.312 155.188 83.644 154.468 84.796C153.748 85.924 152.74 86.8 151.444 87.424C150.148 88.048 148.624 88.36 146.872 88.36ZM168.386 88.324C165.842 88.324 163.826 87.628 162.338 86.236C160.85 84.82 160.106 82.924 160.106 80.548V75.652C160.106 73.276 160.85 71.392 162.338 70C163.826 68.584 165.842 67.876 168.386 67.876C170.93 67.876 172.946 68.584 174.434 70C175.922 71.392 176.666 73.264 176.666 75.616V80.548C176.666 82.924 175.922 84.82 174.434 86.236C172.946 87.628 170.93 88.324 168.386 88.324ZM168.386 84.4C169.586 84.4 170.51 84.076 171.158 83.428C171.83 82.756 172.166 81.796 172.166 80.548V75.652C172.166 74.404 171.83 73.456 171.158 72.808C170.51 72.136 169.586 71.8 168.386 71.8C167.186 71.8 166.25 72.136 165.578 72.808C164.93 73.456 164.606 74.404 164.606 75.652V80.548C164.606 81.796 164.93 82.756 165.578 83.428C166.25 84.076 167.186 84.4 168.386 84.4ZM182.52 88V68.2H186.912V71.98H187.02C187.212 70.684 187.788 69.676 188.748 68.956C189.708 68.212 190.932 67.84 192.42 67.84C194.46 67.84 196.092 68.512 197.316 69.856C198.54 71.176 199.152 72.988 199.152 75.292V76.912H194.436V75.616C194.436 74.392 194.112 73.444 193.464 72.772C192.84 72.076 191.928 71.728 190.728 71.728C188.256 71.728 187.02 73.108 187.02 75.868V88H182.52ZM211.558 88.324C209.014 88.324 206.998 87.628 205.51 86.236C204.022 84.82 203.278 82.924 203.278 80.548V75.652C203.278 73.276 204.022 71.392 205.51 70C206.998 68.584 209.014 67.876 211.558 67.876C214.102 67.876 216.118 68.584 217.606 70C219.094 71.392 219.838 73.264 219.838 75.616V80.548C219.838 82.924 219.094 84.82 217.606 86.236C216.118 87.628 214.102 88.324 211.558 88.324ZM211.558 84.4C212.758 84.4 213.682 84.076 214.33 83.428C215.002 82.756 215.338 81.796 215.338 80.548V75.652C215.338 74.404 215.002 73.456 214.33 72.808C213.682 72.136 212.758 71.8 211.558 71.8C210.358 71.8 209.422 72.136 208.75 72.808C208.102 73.456 207.778 74.404 207.778 75.652V80.548C207.778 81.796 208.102 82.756 208.75 83.428C209.422 84.076 210.358 84.4 211.558 84.4ZM234.836 88.36C233.396 88.36 232.208 88.012 231.272 87.316C230.336 86.62 229.748 85.636 229.508 84.364V88H225.116V61.72H229.616V67.264L229.472 71.98C229.688 70.684 230.264 69.676 231.2 68.956C232.16 68.212 233.372 67.84 234.836 67.84C236.828 67.84 238.424 68.524 239.624 69.892C240.824 71.26 241.424 73.108 241.424 75.436V80.8C241.424 83.128 240.824 84.976 239.624 86.344C238.424 87.688 236.828 88.36 234.836 88.36ZM233.252 84.472C234.404 84.472 235.304 84.136 235.952 83.464C236.6 82.792 236.924 81.832 236.924 80.584V75.616C236.924 74.368 236.6 73.408 235.952 72.736C235.304 72.064 234.404 71.728 233.252 71.728C232.1 71.728 231.2 72.076 230.552 72.772C229.928 73.444 229.616 74.392 229.616 75.616V80.584C229.616 81.808 229.928 82.768 230.552 83.464C231.2 84.136 232.1 84.472 233.252 84.472ZM246.666 88V83.932H253.434V72.268H247.386V68.2H257.934V83.932H264.018V88H246.666ZM255.378 64.888C254.466 64.888 253.746 64.66 253.218 64.204C252.69 63.724 252.426 63.088 252.426 62.296C252.426 61.504 252.69 60.88 253.218 60.424C253.746 59.944 254.466 59.704 255.378 59.704C256.29 59.704 257.01 59.944 257.538 60.424C258.066 60.88 258.33 61.504 258.33 62.296C258.33 63.088 258.066 63.724 257.538 64.204C257.01 64.66 256.29 64.888 255.378 64.888ZM266.812 88L273.724 77.776L267.28 68.2H272.356L275.416 73.06C275.608 73.348 275.788 73.672 275.956 74.032C276.124 74.392 276.244 74.68 276.316 74.896C276.412 74.68 276.544 74.392 276.712 74.032C276.88 73.672 277.048 73.348 277.216 73.06L280.312 68.2H285.388L278.944 77.776L285.82 88H280.708L277.288 82.564C277.096 82.276 276.904 81.952 276.712 81.592C276.544 81.208 276.412 80.908 276.316 80.692C276.22 80.908 276.088 81.208 275.92 81.592C275.752 81.952 275.572 82.276 275.38 82.564L271.888 88H266.812ZM311.928 88V83.932H317.22V65.788H311.928V61.72H327.048V65.788H321.756V83.932H327.048V88H311.928ZM332.973 88V61.72H340.785C342.561 61.72 344.097 62.068 345.393 62.764C346.713 63.436 347.733 64.384 348.453 65.608C349.173 66.832 349.533 68.272 349.533 69.928V79.756C349.533 81.412 349.173 82.864 348.453 84.112C347.733 85.336 346.713 86.296 345.393 86.992C344.097 87.664 342.561 88 340.785 88H332.973ZM337.473 83.968H340.785C342.081 83.968 343.113 83.596 343.881 82.852C344.649 82.084 345.033 81.052 345.033 79.756V69.928C345.033 68.656 344.649 67.648 343.881 66.904C343.113 66.136 342.081 65.752 340.785 65.752H337.473V83.968ZM355.027 88V61.72H370.795V65.68H359.455V72.52H369.535V76.336H359.455V84.04H370.795V88H355.027Z"
        fill="white" />
    <rect x="30" y="75" width="63.6396" height="63.6396" rx="3.6" transform="rotate(-45 30 75)"
        fill="white" />
    <path d="M74.5022 55.8428L74.7417 98.0376" stroke="black" stroke-width="1.2"
        stroke-linecap="round" />
    <path d="M74.7417 98.0376L82.5132 101.278" stroke="black" stroke-width="1.2"
        stroke-linecap="round" />
    <path d="M89.0841 91.4916L82.6045 101.174" stroke="black" stroke-width="1.2"
        stroke-linecap="round" />
    <path d="M89.029 91.4129L56.9427 58.1891" stroke="black" stroke-width="1.2"
        stroke-linecap="round" />
    <path d="M56.9426 58.1298L63.8069 49.6908" stroke="black" stroke-width="1.2"
        stroke-linecap="round" />
    <path d="M63.8868 49.691L74.5024 55.8428" stroke="black" stroke-width="1.2"
        stroke-linecap="round" />
</svg>