<svg width="369" height="150" viewBox="0 0 369 150" fill="none" xmlns="http://www.w3.org/2000/svg">
    <path
        d="M141.872 88.36C140.072 88.36 138.512 88.06 137.192 87.46C135.896 86.836 134.876 85.972 134.132 84.868C133.412 83.74 133.052 82.42 133.052 80.908H137.552C137.552 81.988 137.948 82.852 138.74 83.5C139.532 84.124 140.588 84.436 141.908 84.436C143.204 84.436 144.212 84.124 144.932 83.5C145.676 82.876 146.048 82.024 146.048 80.944C146.048 80.056 145.796 79.3 145.292 78.676C144.788 78.028 144.092 77.584 143.204 77.344L140.036 76.48C137.996 75.928 136.412 74.98 135.284 73.636C134.156 72.268 133.592 70.624 133.592 68.704C133.592 66.472 134.336 64.696 135.824 63.376C137.312 62.032 139.316 61.36 141.836 61.36C144.38 61.36 146.396 62.02 147.884 63.34C149.396 64.636 150.152 66.388 150.152 68.596H145.652C145.652 67.588 145.304 66.784 144.608 66.184C143.936 65.584 143 65.284 141.8 65.284C140.624 65.284 139.7 65.584 139.028 66.184C138.38 66.76 138.056 67.576 138.056 68.632C138.056 69.448 138.296 70.156 138.776 70.756C139.28 71.356 140 71.776 140.936 72.016L144.14 72.916C146.18 73.468 147.752 74.428 148.856 75.796C149.984 77.14 150.548 78.808 150.548 80.8C150.548 82.312 150.188 83.644 149.468 84.796C148.748 85.924 147.74 86.8 146.444 87.424C145.148 88.048 143.624 88.36 141.872 88.36ZM163.386 88.324C160.842 88.324 158.826 87.628 157.338 86.236C155.85 84.82 155.106 82.924 155.106 80.548V75.652C155.106 73.276 155.85 71.392 157.338 70C158.826 68.584 160.842 67.876 163.386 67.876C165.93 67.876 167.946 68.584 169.434 70C170.922 71.392 171.666 73.264 171.666 75.616V80.548C171.666 82.924 170.922 84.82 169.434 86.236C167.946 87.628 165.93 88.324 163.386 88.324ZM163.386 84.4C164.586 84.4 165.51 84.076 166.158 83.428C166.83 82.756 167.166 81.796 167.166 80.548V75.652C167.166 74.404 166.83 73.456 166.158 72.808C165.51 72.136 164.586 71.8 163.386 71.8C162.186 71.8 161.25 72.136 160.578 72.808C159.93 73.456 159.606 74.404 159.606 75.652V80.548C159.606 81.796 159.93 82.756 160.578 83.428C161.25 84.076 162.186 84.4 163.386 84.4ZM177.52 88V68.2H181.912V71.98H182.02C182.212 70.684 182.788 69.676 183.748 68.956C184.708 68.212 185.932 67.84 187.42 67.84C189.46 67.84 191.092 68.512 192.316 69.856C193.54 71.176 194.152 72.988 194.152 75.292V76.912H189.436V75.616C189.436 74.392 189.112 73.444 188.464 72.772C187.84 72.076 186.928 71.728 185.728 71.728C183.256 71.728 182.02 73.108 182.02 75.868V88H177.52ZM206.558 88.324C204.014 88.324 201.998 87.628 200.51 86.236C199.022 84.82 198.278 82.924 198.278 80.548V75.652C198.278 73.276 199.022 71.392 200.51 70C201.998 68.584 204.014 67.876 206.558 67.876C209.102 67.876 211.118 68.584 212.606 70C214.094 71.392 214.838 73.264 214.838 75.616V80.548C214.838 82.924 214.094 84.82 212.606 86.236C211.118 87.628 209.102 88.324 206.558 88.324ZM206.558 84.4C207.758 84.4 208.682 84.076 209.33 83.428C210.002 82.756 210.338 81.796 210.338 80.548V75.652C210.338 74.404 210.002 73.456 209.33 72.808C208.682 72.136 207.758 71.8 206.558 71.8C205.358 71.8 204.422 72.136 203.75 72.808C203.102 73.456 202.778 74.404 202.778 75.652V80.548C202.778 81.796 203.102 82.756 203.75 83.428C204.422 84.076 205.358 84.4 206.558 84.4ZM229.836 88.36C228.396 88.36 227.208 88.012 226.272 87.316C225.336 86.62 224.748 85.636 224.508 84.364V88H220.116V61.72H224.616V67.264L224.472 71.98C224.688 70.684 225.264 69.676 226.2 68.956C227.16 68.212 228.372 67.84 229.836 67.84C231.828 67.84 233.424 68.524 234.624 69.892C235.824 71.26 236.424 73.108 236.424 75.436V80.8C236.424 83.128 235.824 84.976 234.624 86.344C233.424 87.688 231.828 88.36 229.836 88.36ZM228.252 84.472C229.404 84.472 230.304 84.136 230.952 83.464C231.6 82.792 231.924 81.832 231.924 80.584V75.616C231.924 74.368 231.6 73.408 230.952 72.736C230.304 72.064 229.404 71.728 228.252 71.728C227.1 71.728 226.2 72.076 225.552 72.772C224.928 73.444 224.616 74.392 224.616 75.616V80.584C224.616 81.808 224.928 82.768 225.552 83.464C226.2 84.136 227.1 84.472 228.252 84.472ZM241.666 88V83.932H248.434V72.268H242.386V68.2H252.934V83.932H259.018V88H241.666ZM250.378 64.888C249.466 64.888 248.746 64.66 248.218 64.204C247.69 63.724 247.426 63.088 247.426 62.296C247.426 61.504 247.69 60.88 248.218 60.424C248.746 59.944 249.466 59.704 250.378 59.704C251.29 59.704 252.01 59.944 252.538 60.424C253.066 60.88 253.33 61.504 253.33 62.296C253.33 63.088 253.066 63.724 252.538 64.204C252.01 64.66 251.29 64.888 250.378 64.888ZM261.812 88L268.724 77.776L262.28 68.2H267.356L270.416 73.06C270.608 73.348 270.788 73.672 270.956 74.032C271.124 74.392 271.244 74.68 271.316 74.896C271.412 74.68 271.544 74.392 271.712 74.032C271.88 73.672 272.048 73.348 272.216 73.06L275.312 68.2H280.388L273.944 77.776L280.82 88H275.708L272.288 82.564C272.096 82.276 271.904 81.952 271.712 81.592C271.544 81.208 271.412 80.908 271.316 80.692C271.22 80.908 271.088 81.208 270.92 81.592C270.752 81.952 270.572 82.276 270.38 82.564L266.888 88H261.812ZM306.928 88V83.932H312.22V65.788H306.928V61.72H322.048V65.788H316.756V83.932H322.048V88H306.928ZM327.973 88V61.72H335.785C337.561 61.72 339.097 62.068 340.393 62.764C341.713 63.436 342.733 64.384 343.453 65.608C344.173 66.832 344.533 68.272 344.533 69.928V79.756C344.533 81.412 344.173 82.864 343.453 84.112C342.733 85.336 341.713 86.296 340.393 86.992C339.097 87.664 337.561 88 335.785 88H327.973ZM332.473 83.968H335.785C337.081 83.968 338.113 83.596 338.881 82.852C339.649 82.084 340.033 81.052 340.033 79.756V69.928C340.033 68.656 339.649 67.648 338.881 66.904C338.113 66.136 337.081 65.752 335.785 65.752H332.473V83.968ZM350.027 88V61.72H365.795V65.68H354.455V72.52H364.535V76.336H354.455V84.04H365.795V88H350.027Z"
        fill="white" />
    <rect x="30" y="75" width="63.6396" height="63.6396" rx="3.6" transform="rotate(-45 30 75)"
        fill="white" />
    <path d="M74.5022 55.8428L74.7417 98.0376" stroke="black" stroke-width="1.2"
        stroke-linecap="round" />
    <path d="M74.7417 98.0376L82.5132 101.278" stroke="black" stroke-width="1.2"
        stroke-linecap="round" />
    <path d="M89.0841 91.4916L82.6045 101.174" stroke="black" stroke-width="1.2"
        stroke-linecap="round" />
    <path d="M89.029 91.4129L56.9427 58.1891" stroke="black" stroke-width="1.2"
        stroke-linecap="round" />
    <path d="M56.9426 58.1298L63.8069 49.6908" stroke="black" stroke-width="1.2"
        stroke-linecap="round" />
    <path d="M63.8868 49.691L74.5024 55.8428" stroke="black" stroke-width="1.2"
        stroke-linecap="round" />
</svg>