<svg width="212" height="89" viewBox="0 0 212 89" fill="none" xmlns="http://www.w3.org/2000/svg">
<path d="M176.316 21.6426L191.595 43.6287L207.337 64.9436L207.267 20.5388C207.267 20.3405 207.009 20.2635 206.9 20.4289L173.62 70.8765" stroke="url(#paint0_linear_1601_18)" stroke-width="8"/>
<path d="M7.168 24.2H22.528V31.88H10.24L10.048 32.264L20.288 50.952C22.3787 54.7067 23.424 57.5653 23.424 59.528C23.424 63.8373 21.9947 66.9947 19.136 69H2.176V61.576H15.424L15.616 61.192L4.096 40.52C2.432 37.5333 1.6 35.1013 1.6 33.224C1.6 28.7867 3.456 25.7787 7.168 24.2ZM47.811 24.2C50.7977 26.632 53.0163 29.896 54.467 33.992C55.9177 38.088 56.643 42.312 56.643 46.664C56.643 50.9733 55.939 55.0693 54.531 58.952C53.123 62.8347 50.883 66.184 47.811 69H34.627C31.555 66.184 29.315 62.8347 27.907 58.952C26.499 55.0693 25.795 50.9733 25.795 46.664C25.795 42.312 26.5203 38.088 27.971 33.992C29.4217 29.896 31.6403 26.632 34.627 24.2H47.811ZM38.915 61.576H43.523C44.5897 60.3387 45.4857 58.3333 46.211 55.56C46.979 52.744 47.363 49.7787 47.363 46.664C47.363 43.5493 47.0003 40.6267 46.275 37.896C45.5497 35.1227 44.6537 33.1173 43.587 31.88H38.915C37.8483 33.1173 36.931 35.1227 36.163 37.896C35.4377 40.6267 35.075 43.5493 35.075 46.664C35.075 49.7787 35.4377 52.744 36.163 55.56C36.931 58.3333 37.8483 60.3387 38.915 61.576ZM61.6345 24.2H78.6585C81.3465 25.096 83.6292 26.76 85.5065 29.192C87.4265 31.5813 88.3865 34.5253 88.3865 38.024C88.3865 43.7413 86.1252 47.944 81.6025 50.632L88.0665 69H79.1065L73.6665 52.68H70.2745V69H61.6345V24.2ZM70.2745 31.88V45.512H75.7785C76.5038 45.3413 77.2932 44.616 78.1465 43.336C79.0425 42.0133 79.4905 40.4773 79.4905 38.728C79.4905 36.9787 79.1065 35.4427 78.3385 34.12C77.6132 32.7973 76.8878 32.0507 76.1625 31.88H70.2745ZM113.249 24.2C116.235 26.632 118.454 29.896 119.905 33.992C121.355 38.088 122.081 42.312 122.081 46.664C122.081 50.9733 121.377 55.0693 119.969 58.952C118.561 62.8347 116.321 66.184 113.249 69H100.065C96.9925 66.184 94.7525 62.8347 93.3445 58.952C91.9365 55.0693 91.2325 50.9733 91.2325 46.664C91.2325 42.312 91.9578 38.088 93.4085 33.992C94.8592 29.896 97.0778 26.632 100.065 24.2H113.249ZM104.353 61.576H108.961C110.027 60.3387 110.923 58.3333 111.649 55.56C112.417 52.744 112.801 49.7787 112.801 46.664C112.801 43.5493 112.438 40.6267 111.713 37.896C110.987 35.1227 110.091 33.1173 109.025 31.88H104.353C103.286 33.1173 102.369 35.1227 101.601 37.896C100.875 40.6267 100.513 43.5493 100.513 46.664C100.513 49.7787 100.875 52.744 101.601 55.56C102.369 58.3333 103.286 60.3387 104.353 61.576ZM127.072 69V24.2H145.312C147.403 24.968 149.259 26.312 150.88 28.232C152.501 30.152 153.312 32.4773 153.312 35.208C153.312 40.0293 151.733 43.4 148.576 45.32V45.576C152.501 47.752 154.464 51.1653 154.464 55.816C154.464 61.1493 151.755 65.544 146.336 69H127.072ZM135.776 42.696H142.112C143.989 41.544 144.928 39.7947 144.928 37.448C144.928 35.1013 144.053 33.2453 142.304 31.88H135.776V42.696ZM135.776 61.576H142.368C143.136 61.0213 143.819 60.1467 144.416 58.952C145.056 57.7573 145.376 56.5627 145.376 55.368C145.376 54.1733 145.12 53.0853 144.608 52.104C144.096 51.1227 143.456 50.3973 142.688 49.928H135.776V61.576ZM159.135 69V24.2H167.903V69H159.135Z" fill="url(#paint1_radial_1601_18)"/>
<defs>
<linearGradient id="paint0_linear_1601_18" x1="189.045" y1="20.9153" x2="191.841" y2="69.8355" gradientUnits="userSpaceOnUse">
<stop stop-color="#B53DA9"/>
<stop offset="1" stop-color="#250922" stop-opacity="0.78"/>
</linearGradient>
<radialGradient id="paint1_radial_1601_18" cx="0" cy="0" r="1" gradientUnits="userSpaceOnUse" gradientTransform="translate(85.5 44.5) rotate(90) scale(44.5 85.5)">
<stop stop-color="#B53DA9"/>
<stop offset="1" stop-color="#250922" stop-opacity="0.78"/>
</radialGradient>
</defs>
</svg>
